# xmcd CD database file
#
# Track frame offsets:
#	150
#	11830
#	24760
#	35627
#	48305
#	69077
#	86617
#	96955
#	117155
#	129015
#	144435
#	163972
#	181692
#	198097
#	216145
#	236595
#	252187
#	265452
#
# Disc length: 3751 seconds
#
# Revision: 0
# Processed by: cddbd v1.5.2PL0 Copyright (c) Steve Scherf et al.
# Submitted via: CD2WAV32(JP) R3.22
#
DISCID=eb0ea512
DTITLE=ドリーミング - クリスマスソングス
DYEAR=2006
DGENRE=Acapella
TTITLE0=ジングルベル
TTITLE1=あわてん坊のサンタクロース
TTITLE2=トナカイの鈴
TTITLE3=アソパソマソのマーチ
TTITLE4=アソパソマソのクリスマスナイト
TTITLE5=星に祈る
TTITLE6=諸人こぞりて
TTITLE7=銀の星
TTITLE8=サンタが町にやってくる
TTITLE9=サンタさんの鈴
TTITLE10=命あるもの
TTITLE11=アソパソマソたいそう
TTITLE12=クリスマスの谷
TTITLE13=星に願いを
TTITLE14=勇気の花が開くとき
TTITLE15=ママがサンタにキッスした
TTITLE16=勇気凛々
TTITLE17=清この夜
EXTD=
EXTT0=
EXTT1=
EXTT2=
EXTT3=
EXTT4=
EXTT5=
EXTT6=
EXTT7=
EXTT8=
EXTT9=
EXTT10=
EXTT11=
EXTT12=
EXTT13=
EXTT14=
EXTT15=
EXTT16=
EXTT17=
PLAYORDER=
